<mxfile host="app.diagrams.net" modified="2024-05-06T13:27:55.697Z" agent="Mozilla/5.0 (Windows NT 10.0; Win64; x64; rv:125.0) Gecko/20100101 Firefox/125.0" version="24.3.1" etag="G6MJSaUtfc1X-V8KTh-A" type="github">
  <diagram name="第 1 页" id="NtK-ZTlDzlOaNM_QE6Z3">
    <mxGraphModel>
      <root>
        <mxCell id="0" />
        <mxCell id="1" parent="0" />
      </root>
    </mxGraphModel>
  </diagram>
</mxfile>
